<?xml version="1.0" encoding="utf-8"?>
<!-- Generator: Adobe Illustrator 18.0.0, SVG Export Plug-In . SVG Version: 6.00 Build 0)  -->
<!DOCTYPE svg PUBLIC "-//W3C//DTD SVG 1.1//EN" "http://www.w3.org/Graphics/SVG/1.1/DTD/svg11.dtd">
<svg version="1.1" id="Layer_1" xmlns="http://www.w3.org/2000/svg" xmlns:xlink="http://www.w3.org/1999/xlink" x="0px" y="0px"
	 viewBox="0 0 575.3 474.1" enable-background="new 0 0 575.3 474.1" xml:space="preserve">
<circle fill="none" stroke="#FFFFFF" stroke-width="10" stroke-miterlimit="10" cx="297.1" cy="109.9" r="60"/>
<circle fill="none" stroke="#FFFFFF" stroke-width="10" stroke-miterlimit="10" cx="483.1" cy="382.9" r="40"/>
<circle fill="none" stroke="#FFFFFF" stroke-width="10" stroke-miterlimit="10" cx="359.1" cy="382.9" r="40"/>
<circle fill="none" stroke="#FFFFFF" stroke-width="10" stroke-miterlimit="10" cx="235.1" cy="382.9" r="40"/>
<circle fill="none" stroke="#FFFFFF" stroke-width="10" stroke-miterlimit="10" cx="111.1" cy="382.9" r="40"/>
<g>
	<g>
		<path fill="none" stroke="#FFFFFF" stroke-width="10" stroke-miterlimit="10" d="M211.4,318.1c-14.4-30.3-37.6-101.5,2.8-191.9"/>
		<g>
			<path fill="#FFFFFF" d="M220.1,333.9c-1.3-9-1.6-20.9,0.3-29.3L210.3,316l-15,2.3C203.5,321.3,213.3,328,220.1,333.9z"/>
		</g>
		<g>
			<path fill="#FFFFFF" d="M222.1,109.9c-0.8,9.1-0.5,20.9,1.8,29.3l-10.7-10.8l-15.1-1.5C206.2,123.5,215.6,116.3,222.1,109.9z"/>
		</g>
	</g>
</g>
<g>
	<g>
		<path fill="none" stroke="#FFFFFF" stroke-width="10" stroke-miterlimit="10" d="M382.3,318.1c14.4-30.3,37.6-101.5-2.8-191.9"/>
		<g>
			<path fill="#FFFFFF" d="M373.6,333.9c6.8-6,16.6-12.7,24.8-15.7l-15-2.3l-10.1-11.4C375.2,313.1,374.8,324.9,373.6,333.9z"/>
		</g>
		<g>
			<path fill="#FFFFFF" d="M371.6,109.9c6.5,6.3,15.9,13.5,23.9,17l-15.1,1.5l-10.7,10.8C372.1,130.9,372.4,119,371.6,109.9z"/>
		</g>
	</g>
</g>
<g>
	<g>
		<path fill="none" stroke="#FFFFFF" stroke-width="10" stroke-miterlimit="10" d="M488.6,316.1c3.6-34.8,0.5-115.2-82.6-194"/>
		<g>
			<path fill="#FFFFFF" d="M485.6,333.9c4.5-7.9,11.5-17.5,18.2-23l-14.9,2.8l-13.3-7.4C480.2,313.7,483.8,325,485.6,333.9z"/>
		</g>
		<g>
			<path fill="#FFFFFF" d="M392.6,109.9c8.4,3.4,19.9,6.5,28.6,6.7l-13.4,7.1l-5.8,14C400.9,129.1,396.7,118,392.6,109.9z"/>
		</g>
	</g>
</g>
<g>
	<g>
		<path fill="none" stroke="#FFFFFF" stroke-width="10" stroke-miterlimit="10" d="M105.1,316c-3-34.8,1.1-115.2,84.3-194"/>
		<g>
			<path fill="#FFFFFF" d="M107.9,333.9c1.9-8.9,5.7-20.1,10.4-27.4l-13.4,7.2l-14.9-3C96.6,316.3,103.5,326,107.9,333.9z"/>
		</g>
		<g>
			<path fill="#FFFFFF" d="M202.9,109.9c-4.2,8.1-8.4,19.2-9.4,27.8l-5.8-14l-13.4-7.1C183,116.5,194.4,113.3,202.9,109.9z"/>
		</g>
	</g>
</g>
</svg>
