<?xml version="1.0" encoding="utf-8"?>
<!-- Generator: Adobe Illustrator 18.0.0, SVG Export Plug-In . SVG Version: 6.00 Build 0)  -->
<!DOCTYPE svg PUBLIC "-//W3C//DTD SVG 1.1//EN" "http://www.w3.org/Graphics/SVG/1.1/DTD/svg11.dtd">
<svg version="1.1" id="Layer_1" xmlns:sketch="http://www.bohemiancoding.com/sketch/ns"
	 xmlns="http://www.w3.org/2000/svg" xmlns:xlink="http://www.w3.org/1999/xlink" x="0px" y="0px" viewBox="0 0 500 195"
	 enable-background="new 0 0 500 195" xml:space="preserve">
<polygon fill="#FFFFFF" stroke="#000000" stroke-miterlimit="10" points="14,17 486,17 486,153 236,153 236,186 155,186 152,151 
	14,154 "/>
<title>npm-logo</title>
<description>Created with Sketch (http://www.bohemiancoding.com/sketch)</description>
<g id="Page_1">
	<path id="Rectangle_1" fill="#CD3632" d="M0,0h500v168H250v27H139v-27H0V0z M28.3,139.5l55.2,0V55.6h27.8v83.9h27.5v-111H28.3
		V139.5z M166.3,28l0.3,140h55v-27.9h55.7V28H166.3z M221,55h29v57h-29V55z M305.3,28v111h55.3V55.7h27.7V139H416V56h27.7v83h27.7
		V28H305.3z"/>
</g>
</svg>
